<?xml version="1.0" standalone="no"?>
<!DOCTYPE svg PUBLIC "-//W3C//DTD SVG 20010904//EN"
 "http://www.w3.org/TR/2001/REC-SVG-20010904/DTD/svg10.dtd">
<svg version="1.0" xmlns="http://www.w3.org/2000/svg"
 width="299.000000pt" height="299.000000pt" viewBox="0 0 299.000000 299.000000"
 preserveAspectRatio="xMidYMid meet">

<g transform="translate(0.000000,299.000000) scale(0.100000,-0.100000)"
fill="#000000" stroke="none">
<path d="M50 2600 l0 -350 350 0 350 0 0 350 0 350 -350 0 -350 0 0 -350z
m600 0 l0 -250 -250 0 -250 0 0 250 0 250 250 0 250 0 0 -250z"/>
<path d="M250 2600 l0 -150 150 0 150 0 0 150 0 150 -150 0 -150 0 0 -150z"/>
<path d="M850 2900 l0 -50 50 0 50 0 0 -50 0 -50 -50 0 -50 0 0 -50 0 -50 50
0 50 0 0 -50 0 -50 -50 0 -50 0 0 -50 0 -50 50 0 50 0 0 -50 0 -50 -50 0 -50
0 0 -100 0 -100 100 0 100 0 0 -50 0 -50 -150 0 -150 0 0 50 0 50 -100 0 -100
0 0 -50 0 -50 -50 0 -50 0 0 -50 0 -50 50 0 50 0 0 -50 0 -50 -100 0 -100 0 0
50 0 50 -50 0 -50 0 0 50 0 50 -50 0 -50 0 0 -50 0 -50 -50 0 -50 0 0 -50 0
-50 50 0 50 0 0 50 0 50 50 0 50 0 0 -50 0 -50 50 0 50 0 0 -50 0 -50 -50 0
-50 0 0 -100 0 -100 -50 0 -50 0 0 50 0 50 -50 0 -50 0 0 -50 0 -50 50 0 50 0
0 -50 0 -50 -50 0 -50 0 0 -50 0 -50 50 0 50 0 0 50 0 50 150 0 150 0 0 -50 0
-50 -50 0 -50 0 0 -50 0 -50 -50 0 -50 0 0 -50 0 -50 -50 0 -50 0 0 50 0 50
-50 0 -50 0 0 -200 0 -200 50 0 50 0 0 100 0 100 50 0 50 0 0 -100 0 -100 100
0 100 0 0 100 0 100 50 0 50 0 0 -50 0 -50 50 0 50 0 0 -50 0 -50 50 0 50 0 0
50 0 50 -50 0 -50 0 0 50 0 50 50 0 50 0 0 50 0 50 -50 0 -50 0 0 50 0 50 50
0 50 0 0 50 0 50 -100 0 -100 0 0 50 0 50 100 0 100 0 0 50 0 50 -200 0 -200
0 0 100 0 100 100 0 100 0 0 -50 0 -50 200 0 200 0 0 -50 c0 -47 2 -50 25 -50
l25 0 0 -125 0 -125 225 0 225 0 0 -25 0 -25 -100 0 -100 0 0 -200 0 -200 50
0 50 0 0 -50 0 -50 50 0 50 0 0 -50 0 -50 100 0 100 0 0 50 0 50 50 0 50 0 0
-50 0 -50 50 0 50 0 0 -50 0 -50 50 0 50 0 0 -50 0 -50 100 0 100 0 0 -50 0
-50 -100 0 -100 0 0 -100 0 -100 -100 0 -100 0 0 50 0 50 -50 0 -50 0 0 50 0
50 -50 0 -50 0 0 50 0 50 50 0 50 0 0 50 0 50 -50 0 -50 0 0 -50 0 -50 -100 0
-100 0 0 50 0 50 -50 0 -50 0 0 100 0 100 -50 0 -50 0 0 50 0 50 -50 0 -50 0
0 50 0 50 50 0 50 0 0 100 0 100 -50 0 -50 0 0 50 0 50 -50 0 -50 0 0 100 0
100 -50 0 -50 0 0 -100 0 -100 50 0 50 0 0 -50 0 -50 -50 0 -50 0 0 -50 0 -50
50 0 50 0 0 -50 0 -50 -50 0 -50 0 0 -100 0 -100 50 0 50 0 0 -50 0 -50 -50 0
-50 0 0 -50 0 -50 50 0 50 0 0 50 0 50 100 0 100 0 0 -50 0 -50 -50 0 -50 0 0
-50 0 -50 -50 0 -50 0 0 -200 0 -200 300 0 300 0 0 100 0 100 50 0 50 0 0 -50
0 -50 50 0 50 0 0 -50 0 -50 100 0 100 0 0 50 0 50 50 0 50 0 0 50 0 50 100 0
100 0 0 -50 0 -50 -50 0 -50 0 0 -50 0 -50 50 0 50 0 0 50 0 50 50 0 50 0 0
100 0 100 50 0 50 0 0 -150 0 -150 150 0 150 0 0 100 0 100 50 0 50 0 0 -50 0
-50 50 0 50 0 0 50 0 50 -50 0 -50 0 0 100 0 100 -50 0 -50 0 0 -100 0 -100
-50 0 -50 0 0 -50 0 -50 -50 0 -50 0 0 100 0 100 50 0 50 0 0 50 0 50 -50 0
-50 0 0 50 0 50 50 0 50 0 0 50 0 50 -50 0 -50 0 0 50 0 50 100 0 100 0 0 100
0 100 -50 0 -50 0 0 50 0 50 -50 0 -50 0 0 -50 0 -50 -100 0 -100 0 0 50 0 50
50 0 50 0 0 50 0 50 50 0 50 0 0 50 0 50 150 0 150 0 0 -150 0 -150 50 0 50 0
0 250 0 250 -50 0 -50 0 0 -50 0 -50 -50 0 -50 0 0 50 0 50 -100 0 -100 0 0
-100 0 -100 -50 0 -50 0 0 50 0 50 -50 0 -50 0 0 50 0 50 -50 0 -50 0 0 50 0
50 50 0 50 0 0 50 0 50 50 0 50 0 0 -50 0 -50 100 0 100 0 0 50 0 50 -100 0
-100 0 0 50 0 50 100 0 100 0 0 50 0 50 50 0 50 0 0 50 0 50 50 0 50 0 0 50 0
50 50 0 50 0 0 50 0 50 -50 0 -50 0 0 -50 0 -50 -50 0 -50 0 0 50 0 50 -50 0
-50 0 0 -50 0 -50 -50 0 -50 0 0 50 0 50 -50 0 -50 0 0 -100 0 -100 -100 0
-100 0 0 50 0 50 50 0 50 0 0 50 0 50 -50 0 -50 0 0 -50 0 -50 -100 0 -100 0
0 -100 0 -100 -50 0 -50 0 0 50 0 50 -50 0 -50 0 0 -50 0 -50 50 0 50 0 0 -50
0 -50 50 0 50 0 0 -50 c0 -47 -2 -50 -25 -50 -21 0 -25 5 -25 30 l0 30 -75 0
c-68 0 -75 2 -75 20 0 17 -7 20 -50 20 l-50 0 0 50 0 50 -50 0 -50 0 0 50 0
50 -50 0 -50 0 0 -100 0 -100 -50 0 -50 0 0 50 0 50 -50 0 -50 0 0 -70 0 -70
-150 0 c-143 0 -150 1 -150 20 0 17 -7 20 -50 20 l-50 0 0 100 0 100 50 0 50
0 0 -50 0 -50 50 0 50 0 0 -50 0 -50 50 0 50 0 0 100 0 100 100 0 100 0 0 50
0 50 -100 0 -100 0 0 -50 0 -50 -100 0 -100 0 0 50 0 50 50 0 50 0 0 50 0 50
50 0 50 0 0 50 0 50 50 0 50 0 0 -50 0 -50 50 0 50 0 0 50 0 50 50 0 50 0 0
50 0 50 50 0 50 0 0 -100 0 -100 -50 0 -50 0 0 -50 0 -50 50 0 50 0 0 50 0 50
50 0 50 0 0 100 0 100 -50 0 -50 0 0 50 0 50 50 0 50 0 0 50 0 50 50 0 50 0 0
-150 0 -150 50 0 50 0 0 -50 0 -50 -50 0 -50 0 0 -50 0 -50 50 0 50 0 0 50 0
50 50 0 50 0 0 50 0 50 50 0 50 0 0 250 0 250 -50 0 -50 0 0 100 0 100 -300 0
-300 0 0 -50 0 -50 -50 0 -50 0 0 50 0 50 -100 0 -100 0 0 -50 0 -50 -50 0
-50 0 0 50 0 50 -100 0 -100 0 0 -50z m500 -100 l0 -50 50 0 50 0 0 50 0 50
50 0 50 0 0 -50 0 -50 -50 0 -50 0 0 -50 0 -50 50 0 50 0 0 -50 0 -50 50 0 50
0 0 50 0 50 50 0 50 0 0 100 0 100 50 0 50 0 0 -50 0 -50 50 0 50 0 0 -100 0
-100 -50 0 -50 0 0 50 0 50 -50 0 -50 0 0 -50 0 -50 -50 0 -50 0 0 -50 0 -50
-100 0 -100 0 0 -100 0 -100 -50 0 -50 0 0 50 0 50 -50 0 -50 0 0 -50 0 -50
-50 0 -50 0 0 100 0 100 -50 0 -50 0 0 50 0 50 50 0 50 0 0 50 0 50 -50 0 -50
0 0 50 0 50 50 0 50 0 0 -50 0 -50 50 0 50 0 0 -50 0 -50 50 0 50 0 0 100 0
100 -50 0 -50 0 0 50 0 50 50 0 50 0 0 -50z m700 -450 l0 -100 -50 0 -50 0 0
100 0 100 50 0 50 0 0 -100z m-1000 -50 l0 -50 -50 0 -50 0 0 50 0 50 50 0 50
0 0 -50z m-300 -300 l0 -50 -100 0 -100 0 0 50 0 50 100 0 100 0 0 -50z m2000
0 l0 -50 -50 0 -50 0 0 50 0 50 50 0 50 0 0 -50z m-500 -100 l0 -50 -50 0 -50
0 0 50 0 50 50 0 50 0 0 -50z m300 0 l0 -50 -50 0 -50 0 0 -50 0 -50 -50 0
-50 0 0 50 0 50 50 0 50 0 0 50 0 50 50 0 50 0 0 -50z m-1800 -100 l0 -50 -50
0 -50 0 0 50 0 50 50 0 50 0 0 -50z m1000 -70 c0 -17 -7 -20 -50 -20 -43 0
-50 3 -50 20 0 17 7 20 50 20 43 0 50 -3 50 -20z m500 -130 l0 -50 -50 0 -50
0 0 50 0 50 50 0 50 0 0 -50z m-1082 1 c6 0 12 -8 12 -16 0 -17 -16 -20 -25
-5 -16 25 -25 5 -25 -55 0 -37 4 -65 10 -65 6 0 10 -4 10 -10 0 -5 -20 -10
-45 -10 -25 0 -45 5 -45 10 0 6 5 10 10 10 6 0 10 28 10 65 0 60 -9 80 -25 55
-9 -15 -25 -12 -25 4 0 21 46 26 138 17z m611 -29 c30 -34 24 -87 -16 -119
l-27 -22 27 -6 c37 -10 24 -26 -15 -18 -49 10 -106 53 -118 88 -31 93 81 151
149 77z m161 23 c15 -9 12 -46 -5 -65 -14 -16 -13 -20 15 -50 16 -18 30 -34
30 -36 0 -2 -15 -4 -33 -4 -26 0 -36 6 -52 33 -17 27 -20 29 -23 12 -3 -10 1
-21 7 -23 27 -9 7 -22 -34 -22 -25 0 -45 5 -45 10 0 6 5 10 10 10 6 0 10 28
10 65 0 39 -4 65 -11 65 -5 0 -8 4 -5 8 5 9 120 7 136 -3z m-384 -35 c8 0 14
-4 14 -10 0 -5 -7 -10 -15 -10 -11 0 -15 -11 -15 -36 0 -19 4 -33 9 -29 16 9
22 -12 6 -25 -30 -25 -50 -8 -56 50 -5 47 -3 58 15 78 21 24 21 24 24 3 2 -12
10 -21 18 -21z m-176 -44 c0 -24 3 -52 6 -61 6 -14 -1 -16 -47 -13 -53 3 -54
4 -64 41 -6 21 -14 35 -18 30 -5 -4 -12 -1 -16 6 -6 9 -10 1 -13 -23 -2 -20 0
-36 4 -36 4 0 8 -4 8 -10 0 -5 -15 -10 -32 -10 l-33 0 0 59 0 59 103 1 102 1
0 -44z m100 24 c0 -11 -5 -20 -10 -20 -6 0 -5 -8 2 -20 18 -28 0 -54 -39 -58
-23 -2 -32 2 -36 17 -7 28 3 34 25 14 10 -9 18 -12 18 -7 0 5 -9 15 -20 22
-19 12 -27 51 -13 65 3 4 21 7 40 7 26 0 33 -4 33 -20z m570 -40 l0 -50 100 0
100 0 0 -50 0 -50 50 0 50 0 0 -50 0 -50 50 0 50 0 0 -50 0 -50 -50 0 -50 0 0
-50 0 -50 -100 0 -100 0 0 -50 0 -50 -50 0 -50 0 0 -100 0 -100 -50 0 -50 0 0
-50 0 -50 -50 0 -50 0 0 50 0 50 50 0 50 0 0 50 0 50 -150 0 -150 0 0 50 0 50
-50 0 -50 0 0 50 0 50 100 0 100 0 0 50 0 50 -50 0 -50 0 0 50 0 50 -50 0
c-47 0 -50 2 -50 25 l0 25 200 0 200 0 0 -25 0 -25 -100 0 -100 0 0 -50 0 -50
50 0 50 0 0 -50 0 -50 150 0 150 0 0 50 0 50 -50 0 -50 0 0 150 0 150 -25 0
c-23 0 -25 3 -25 50 0 47 2 50 25 50 23 0 25 -3 25 -50z m-1500 -250 l0 -100
50 0 50 0 0 -50 0 -50 -50 0 -50 0 0 50 0 50 -50 0 -50 0 0 100 0 100 50 0 50
0 0 -100z m-200 -150 l0 -50 -50 0 -50 0 0 50 0 50 50 0 50 0 0 -50z m1100
-200 l0 -50 -50 0 -50 0 0 50 0 50 50 0 50 0 0 -50z m-400 -100 l0 -50 -50 0
-50 0 0 50 0 50 50 0 50 0 0 -50z m1400 -100 l0 -150 -150 0 -150 0 0 150 0
150 150 0 150 0 0 -150z m-1200 -200 l0 -50 50 0 50 0 0 -50 0 -50 50 0 50 0
0 -50 0 -50 -100 0 -100 0 0 -50 0 -50 -100 0 -100 0 0 50 0 50 100 0 100 0 0
50 0 50 -100 0 -100 0 0 50 0 50 50 0 50 0 0 50 0 50 50 0 50 0 0 -50z m1100
-100 l0 -50 -50 0 -50 0 0 50 0 50 50 0 50 0 0 -50z m200 0 l0 -50 -50 0 -50
0 0 50 0 50 50 0 50 0 0 -50z"/>
<path d="M1150 2500 l0 -50 50 0 50 0 0 50 0 50 -50 0 -50 0 0 -50z"/>
<path d="M1350 2500 l0 -50 50 0 50 0 0 50 0 50 -50 0 -50 0 0 -50z"/>
<path d="M1692 1578 c-16 -16 -15 -93 2 -107 19 -16 46 -3 48 23 2 37 -3 70
-14 83 -13 16 -21 16 -36 1z"/>
<path d="M1870 1561 c0 -23 4 -29 16 -24 17 6 15 44 -3 51 -9 2 -13 -7 -13
-27z"/>
<path d="M1323 1510 c0 -25 2 -35 4 -22 2 12 2 32 0 45 -2 12 -4 2 -4 -23z"/>
<path d="M1435 1530 c3 -5 8 -10 11 -10 2 0 4 5 4 10 0 6 -5 10 -11 10 -5 0
-7 -4 -4 -10z"/>
<path d="M2150 1250 l0 -100 100 0 100 0 0 50 0 50 -50 0 -50 0 0 50 0 50 -50
0 -50 0 0 -100z"/>
<path d="M1750 1000 l0 -50 50 0 50 0 0 50 0 50 -50 0 -50 0 0 -50z"/>
<path d="M2250 700 l0 -50 50 0 50 0 0 50 0 50 -50 0 -50 0 0 -50z"/>
<path d="M2250 2600 l0 -350 350 0 350 0 0 350 0 350 -350 0 -350 0 0 -350z
m600 0 l0 -250 -250 0 -250 0 0 250 0 250 250 0 250 0 0 -250z"/>
<path d="M2450 2600 l0 -150 150 0 150 0 0 150 0 150 -150 0 -150 0 0 -150z"/>
<path d="M2750 1700 l0 -50 50 0 50 0 0 -50 0 -50 50 0 50 0 0 50 0 50 -50 0
-50 0 0 50 0 50 -50 0 -50 0 0 -50z"/>
<path d="M50 400 l0 -350 350 0 350 0 0 350 0 350 -350 0 -350 0 0 -350z m600
0 l0 -250 -250 0 -250 0 0 250 0 250 250 0 250 0 0 -250z"/>
<path d="M250 400 l0 -150 150 0 150 0 0 150 0 150 -150 0 -150 0 0 -150z"/>
<path d="M1750 400 l0 -50 50 0 50 0 0 50 0 50 -50 0 -50 0 0 -50z"/>
</g>
</svg>
